HIERARCHY
ROOT newVegas:Hips
{
	OFFSET 0.000000 96.479958 0.000000
	CHANNELS 6 Xposition Yposition Zposition Xrotation Yrotation Zrotation
	JOINT newVegas:Pelvis
	{
		OFFSET 0.000000 0.000000 0.000000
		CHANNELS 3 Xrotation Yrotation Zrotation
		JOINT newVegas:LeftUpLeg
		{
			OFFSET 18.735201 -5.666702 -4.541200
			CHANNELS 3 Xrotation Yrotation Zrotation
			JOINT newVegas:LeftLeg
			{
				OFFSET -0.021200 -31.938179 0.493100
				CHANNELS 3 Xrotation Yrotation Zrotation
				JOINT newVegas:LeftFoot
				{
					OFFSET 0.021200 -31.938179 -4.336299
					CHANNELS 3 Xrotation Yrotation Zrotation
					JOINT newVegas:LeftToeBase
					{
						OFFSET 0.943001 -26.722000 15.023500
						CHANNELS 3 Xrotation Yrotation Zrotation
						End Site
						{
							OFFSET 0.000000 30.670183 0.000000
						}
					}
				}
				JOINT newVegas:Left_PantLeg
				{
					OFFSET 0.663870 -9.044666 -1.108900
					CHANNELS 3 Xrotation Yrotation Zrotation
					End Site
					{
						OFFSET 1.415995 20.635357 0.000000
					}
				}
			}
		}
		JOINT newVegas:RightUpLeg
		{
			OFFSET -18.735201 -5.666702 -4.541200
			CHANNELS 3 Xrotation Yrotation Zrotation
			JOINT newVegas:RightLeg
			{
				OFFSET 0.018946 -31.938133 0.493100
				CHANNELS 3 Xrotation Yrotation Zrotation
				JOINT newVegas:RightFoot
				{
					OFFSET -0.018946 -31.938126 -4.336299
					CHANNELS 3 Xrotation Yrotation Zrotation
					JOINT newVegas:RightToeBase
					{
						OFFSET -0.943001 -26.722004 15.023500
						CHANNELS 3 Xrotation Yrotation Zrotation
						End Site
						{
							OFFSET 0.000000 30.670187 0.000000
						}
					}
				}
				JOINT newVegas:Right_PantLeg
				{
					OFFSET -0.661674 -9.044716 -1.108900
					CHANNELS 3 Xrotation Yrotation Zrotation
					End Site
					{
						OFFSET -1.415958 20.635269 0.000000
					}
				}
			}
		}
	}
	JOINT newVegas:Spine
	{
		OFFSET 0.000000 10.199997 -0.299500
		CHANNELS 3 Xrotation Yrotation Zrotation
		JOINT newVegas:Spine1
		{
			OFFSET 0.000000 11.900002 -1.516600
			CHANNELS 3 Xrotation Yrotation Zrotation
			JOINT newVegas:Spine2
			{
				OFFSET 0.000000 13.600006 -2.842500
				CHANNELS 3 Xrotation Yrotation Zrotation
				JOINT newVegas:Neck
				{
					OFFSET 0.000000 9.624100 -2.890100
					CHANNELS 3 Xrotation Yrotation Zrotation
					JOINT newVegas:Head
					{
						OFFSET 0.000000 14.068802 -1.351900
						CHANNELS 3 Xrotation Yrotation Zrotation
						JOINT newVegas:Hair_Back
						{
							OFFSET 0.000000 3.231903 -17.524799
							CHANNELS 3 Xrotation Yrotation Zrotation
							End Site
							{
								OFFSET 0.000000 19.849884 0.000000
							}
						}
						JOINT newVegas:Hair_Front
						{
							OFFSET 0.000000 31.260406 4.573800
							CHANNELS 3 Xrotation Yrotation Zrotation
							JOINT newVegas:Hair_Front1
							{
								OFFSET 0.000000 2.284103 11.993300
								CHANNELS 3 Xrotation Yrotation Zrotation
								JOINT newVegas:Hair_Front2
								{
									OFFSET 0.000000 2.284103 11.993300
									CHANNELS 3 Xrotation Yrotation Zrotation
									End Site
									{
										OFFSET 0.000000 12.208862 0.000000
									}
								}
							}
						}
						JOINT newVegas:Jowel
						{
							OFFSET 0.000000 -7.458206 6.864100
							CHANNELS 3 Xrotation Yrotation Zrotation
							End Site
							{
								OFFSET 0.000000 19.849884 0.000000
							}
						}
					}
				}
				JOINT newVegas:LeftShoulder
				{
					OFFSET 15.263000 10.923401 -0.547700
					CHANNELS 3 Xrotation Yrotation Zrotation
					JOINT newVegas:LeftArm
					{
						OFFSET 25.438599 -2.830597 -13.032500
						CHANNELS 3 Xrotation Yrotation Zrotation
						JOINT newVegas:LeftForeArm
						{
							OFFSET 29.960503 0.000000 0.000000
							CHANNELS 3 Xrotation Yrotation Zrotation
							JOINT newVegas:LeftHand
							{
								OFFSET 27.849251 0.000000 0.000000
								CHANNELS 3 Xrotation Yrotation Zrotation
								JOINT newVegas:LeftHandThumb1
								{
									OFFSET 4.487587 -3.305161 6.305391
									CHANNELS 3 Xrotation Yrotation Zrotation
									JOINT newVegas:LeftHandThumb2
									{
										OFFSET 5.480453 -3.164139 3.164143
										CHANNELS 3 Xrotation Yrotation Zrotation
										JOINT newVegas:LeftHandThumb3
										{
											OFFSET 5.159721 -2.978973 2.978967
											CHANNELS 3 Xrotation Yrotation Zrotation
											End Site
											{
												OFFSET 2.494507 5.926697 1.738678
											}
										}
									}
								}
								JOINT newVegas:LeftHandIndex1
								{
									OFFSET 18.578728 -0.527832 5.208049
									CHANNELS 3 Xrotation Yrotation Zrotation
									JOINT newVegas:LeftHandIndex2
									{
										OFFSET 3.192009 0.000000 0.000000
										CHANNELS 3 Xrotation Yrotation Zrotation
										JOINT newVegas:LeftHandIndex3
										{
											OFFSET 3.835129 0.000000 0.000000
											CHANNELS 3 Xrotation Yrotation Zrotation
											End Site
											{
												OFFSET -0.034599 3.816971 0.371180
											}
										}
									}
								}
								JOINT newVegas:LeftHandMiddle1
								{
									OFFSET 18.476105 0.000000 0.000000
									CHANNELS 3 Xrotation Yrotation Zrotation
									JOINT newVegas:LeftHandMiddle2
									{
										OFFSET 3.324875 0.000000 0.000000
										CHANNELS 3 Xrotation Yrotation Zrotation
										JOINT newVegas:LeftHandMiddle3
										{
											OFFSET 4.596550 0.000000 0.000000
											CHANNELS 3 Xrotation Yrotation Zrotation
											End Site
											{
												OFFSET 0.057701 4.578827 0.399218
											}
										}
									}
								}
								JOINT newVegas:LeftHandRing1
								{
									OFFSET 17.732719 0.121887 -4.201567
									CHANNELS 3 Xrotation Yrotation Zrotation
									JOINT newVegas:LeftHandRing2
									{
										OFFSET 2.733170 0.000000 0.000000
										CHANNELS 3 Xrotation Yrotation Zrotation
										JOINT newVegas:LeftHandRing3
										{
											OFFSET 3.178268 0.000000 0.000000
											CHANNELS 3 Xrotation Yrotation Zrotation
											End Site
											{
												OFFSET 0.119102 3.170624 0.185394
											}
										}
									}
								}
								JOINT newVegas:LeftHandPinky1
								{
									OFFSET 15.989624 -0.606689 -7.535461
									CHANNELS 3 Xrotation Yrotation Zrotation
									JOINT newVegas:LeftHandPinky2
									{
										OFFSET 2.538986 0.000000 0.000000
										CHANNELS 3 Xrotation Yrotation Zrotation
										JOINT newVegas:LeftHandPinky3
										{
											OFFSET 2.593102 0.000000 0.000000
											CHANNELS 3 Xrotation Yrotation Zrotation
											End Site
											{
												OFFSET -0.150902 2.584198 0.152708
											}
										}
									}
								}
							}
							JOINT newVegas:Left_Sleeve
							{
								OFFSET 0.267448 -0.649796 0.577675
								CHANNELS 3 Xrotation Yrotation Zrotation
								End Site
								{
									OFFSET 0.000000 15.991241 0.000000
								}
							}
							JOINT newVegas:Left_CapeC
							{
								OFFSET 15.715958 -8.608795 -6.935905
								CHANNELS 3 Xrotation Yrotation Zrotation
								JOINT newVegas:Left_CapeC1
								{
									OFFSET 0.000000 -8.688499 0.000000
									CHANNELS 3 Xrotation Yrotation Zrotation
									End Site
									{
										OFFSET 0.000000 8.688499 0.000000
									}
								}
							}
						}
						JOINT newVegas:Left_CapeB
						{
							OFFSET 26.118385 -8.608795 -7.079235
							CHANNELS 3 Xrotation Yrotation Zrotation
							JOINT newVegas:Left_CapeB1
							{
								OFFSET 0.000000 -8.688499 0.000000
								CHANNELS 3 Xrotation Yrotation Zrotation
								End Site
								{
									OFFSET 0.000000 8.688499 0.000000
								}
							}
						}
						JOINT newVegas:Left_CapeA
						{
							OFFSET 5.115639 -8.608795 -10.395809
							CHANNELS 3 Xrotation Yrotation Zrotation
							JOINT newVegas:Left_CapeA1
							{
								OFFSET 0.000000 -8.688499 0.000000
								CHANNELS 3 Xrotation Yrotation Zrotation
								End Site
								{
									OFFSET 0.000000 8.688499 0.000000
								}
							}
						}
					}
				}
				JOINT newVegas:RightShoulder
				{
					OFFSET -15.263000 10.923401 -0.547700
					CHANNELS 3 Xrotation Yrotation Zrotation
					JOINT newVegas:RightArm
					{
						OFFSET -25.438599 -2.830597 -13.032500
						CHANNELS 3 Xrotation Yrotation Zrotation
						JOINT newVegas:RightForeArm
						{
							OFFSET -29.960503 0.000000 0.000000
							CHANNELS 3 Xrotation Yrotation Zrotation
							JOINT newVegas:RightHand
							{
								OFFSET -27.849251 0.000000 0.000000
								CHANNELS 3 Xrotation Yrotation Zrotation
								JOINT newVegas:RightHandThumb1
								{
									OFFSET -4.487587 -3.305161 6.305391
									CHANNELS 3 Xrotation Yrotation Zrotation
									JOINT newVegas:RightHandThumb2
									{
										OFFSET -5.480453 -3.164139 3.164143
										CHANNELS 3 Xrotation Yrotation Zrotation
										JOINT newVegas:RightHandThumb3
										{
											OFFSET -5.159721 -2.978973 2.978967
											CHANNELS 3 Xrotation Yrotation Zrotation
											End Site
											{
												OFFSET -2.494507 5.926697 1.738678
											}
										}
									}
								}
								JOINT newVegas:RightHandIndex1
								{
									OFFSET -18.578728 -0.527832 5.208049
									CHANNELS 3 Xrotation Yrotation Zrotation
									JOINT newVegas:RightHandIndex2
									{
										OFFSET -3.192009 0.000000 0.000000
										CHANNELS 3 Xrotation Yrotation Zrotation
										JOINT newVegas:RightHandIndex3
										{
											OFFSET -3.835129 0.000000 0.000000
											CHANNELS 3 Xrotation Yrotation Zrotation
											End Site
											{
												OFFSET 0.034599 3.816971 0.371180
											}
										}
									}
								}
								JOINT newVegas:RightHandMiddle1
								{
									OFFSET -18.476105 0.000000 0.000000
									CHANNELS 3 Xrotation Yrotation Zrotation
									JOINT newVegas:RightHandMiddle2
									{
										OFFSET -3.324875 0.000000 0.000000
										CHANNELS 3 Xrotation Yrotation Zrotation
										JOINT newVegas:RightHandMiddle3
										{
											OFFSET -4.596550 0.000000 0.000000
											CHANNELS 3 Xrotation Yrotation Zrotation
											End Site
											{
												OFFSET -0.057701 4.578827 0.399218
											}
										}
									}
								}
								JOINT newVegas:RightHandRing1
								{
									OFFSET -17.732719 0.121887 -4.201567
									CHANNELS 3 Xrotation Yrotation Zrotation
									JOINT newVegas:RightHandRing2
									{
										OFFSET -2.733170 0.000000 0.000000
										CHANNELS 3 Xrotation Yrotation Zrotation
										JOINT newVegas:RightHandRing3
										{
											OFFSET -3.178268 0.000000 0.000000
											CHANNELS 3 Xrotation Yrotation Zrotation
											End Site
											{
												OFFSET -0.119102 3.170624 0.185394
											}
										}
									}
								}
								JOINT newVegas:RightHandPinky1
								{
									OFFSET -15.989624 -0.606689 -7.535461
									CHANNELS 3 Xrotation Yrotation Zrotation
									JOINT newVegas:RightHandPinky2
									{
										OFFSET -2.538986 0.000000 0.000000
										CHANNELS 3 Xrotation Yrotation Zrotation
										JOINT newVegas:RightHandPinky3
										{
											OFFSET -2.593102 0.000000 0.000000
											CHANNELS 3 Xrotation Yrotation Zrotation
											End Site
											{
												OFFSET 0.150902 2.584198 0.152708
											}
										}
									}
								}
							}
							JOINT newVegas:Right_CapeC
							{
								OFFSET -15.715958 -8.608795 -6.935905
								CHANNELS 3 Xrotation Yrotation Zrotation
								JOINT newVegas:Right_CapeC1
								{
									OFFSET 0.000000 -8.688499 0.000000
									CHANNELS 3 Xrotation Yrotation Zrotation
									End Site
									{
										OFFSET 0.000000 8.688499 0.000000
									}
								}
							}
							JOINT newVegas:Right_Sleeve
							{
								OFFSET -0.267448 -0.649994 0.577675
								CHANNELS 3 Xrotation Yrotation Zrotation
								End Site
								{
									OFFSET 0.000000 15.991302 0.000000
								}
							}
						}
						JOINT newVegas:Right_CapeA
						{
							OFFSET -5.115540 -8.608795 -10.395824
							CHANNELS 3 Xrotation Yrotation Zrotation
							JOINT newVegas:Right_CapeA1
							{
								OFFSET 0.000000 -8.688499 0.000000
								CHANNELS 3 Xrotation Yrotation Zrotation
								End Site
								{
									OFFSET 0.000000 8.688499 0.000000
								}
							}
						}
						JOINT newVegas:Right_CapeB
						{
							OFFSET -26.118187 -8.608795 -7.079266
							CHANNELS 3 Xrotation Yrotation Zrotation
							JOINT newVegas:Right_CapeB1
							{
								OFFSET 0.000000 -8.688499 0.000000
								CHANNELS 3 Xrotation Yrotation Zrotation
								End Site
								{
									OFFSET 0.000000 8.688499 0.000000
								}
							}
						}
					}
				}
				JOINT newVegas:Left_Collar
				{
					OFFSET 18.625099 8.655502 8.828100
					CHANNELS 3 Xrotation Yrotation Zrotation
					JOINT newVegas:Left_Collar1
					{
						OFFSET 14.783401 10.540405 -1.259500
						CHANNELS 3 Xrotation Yrotation Zrotation
						End Site
						{
							OFFSET 0.000000 18.199875 0.000000
						}
					}
				}
				JOINT newVegas:Collar_Back
				{
					OFFSET 0.000000 15.630707 -20.132601
					CHANNELS 3 Xrotation Yrotation Zrotation
					End Site
					{
						OFFSET 0.000000 22.523010 0.000000
					}
				}
				JOINT newVegas:Left_Peck
				{
					OFFSET 17.239599 -5.132599 25.482599
					CHANNELS 3 Xrotation Yrotation Zrotation
					End Site
					{
						OFFSET 0.000000 22.523010 0.000000
					}
				}
				JOINT newVegas:Right_Peck
				{
					OFFSET -17.239599 -5.132202 25.482599
					CHANNELS 3 Xrotation Yrotation Zrotation
					End Site
					{
						OFFSET 0.000000 22.523010 0.000000
					}
				}
				JOINT newVegas:Right_Collar
				{
					OFFSET -18.625099 8.655792 8.828100
					CHANNELS 3 Xrotation Yrotation Zrotation
					JOINT newVegas:Right_Collar1
					{
						OFFSET -14.783401 10.539993 -1.259500
						CHANNELS 3 Xrotation Yrotation Zrotation
						End Site
						{
							OFFSET 0.000000 18.199631 0.000000
						}
					}
				}
			}
		}
		JOINT newVegas:Belly
		{
			OFFSET 0.000000 -6.540398 9.014299
			CHANNELS 3 Xrotation Yrotation Zrotation
			End Site
			{
				OFFSET 0.000000 11.566666 0.000000
			}
		}
	}
	JOINT newVegas:ElvisFacialAnim_Joint
	{
		OFFSET 1.000000 -95.330101 -8.825800
		CHANNELS 3 Xrotation Yrotation Zrotation
		End Site
		{
			OFFSET 0.000000 35.315800 0.000000
		}
	}
}
MOTION
Frames: 4
Frame Time: 0.033333
-0.014161 92.543175 3.936280 -1.158491 0.064924 1.375248 -0.000000 0.000000 0.000000 -31.833866 11.034002 9.427301 59.845079 -7.444514 -3.399103 0.728447 0.198986 -0.826552 0.000000 0.000000 -0.000000 -0.000002 0.000000 0.000000 -23.979877 -5.055371 -2.264754 37.224104 1.479630 -3.804312 -13.726962 -0.510930 3.541730 0.000000 -0.000000 -0.000000 0.000001 -0.000000 -0.000000 20.539460 -8.667299 2.358688 1.472466 -2.416856 -0.531297 1.488047 -2.385873 -0.464073 1.721765 0.256360 -0.736182 1.721779 0.256356 -0.736180 0.000001 0.000000 0.000000 1.721776 0.256359 -0.736181 1.721777 0.256357 -0.736182 -0.000002 0.000000 -0.000000 0.000001 0.000000 0.000000 -1.062429 -14.212009 0.092166 -19.635967 -13.172157 -46.867962 -85.042269 -62.025665 -79.902442 -0.152931 -6.024816 -2.180818 4.766503 -0.870660 -14.442467 15.727918 12.690854 8.833648 0.000000 0.000001 -0.000001 -3.609588 -7.817608 -81.260509 0.005611 -4.389296 -67.460050 -0.000001 0.000000 0.000001 -5.482609 2.419651 -86.651591 -0.070636 -4.900525 -76.607491 -0.000000 0.000000 0.000001 -4.486845 3.904445 -90.417081 -1.117881 -0.684977 -62.315682 0.000000 0.000001 0.000001 -8.880127 8.256228 -85.755730 -0.027035 -0.063891 -74.102683 0.000001 -0.000002 -0.000001 0.000001 0.000000 0.000001 0.000001 0.000000 0.000001 0.000001 0.000000 0.000001 0.000002 0.000001 -0.000000 0.000002 0.000000 -0.000001 0.000002 0.000001 -0.000000 0.000001 0.000002 -0.000000 1.206609 -0.842858 2.191712 3.756640 1.343744 51.662229 -81.679528 68.182514 76.293616 -1.265527 10.314936 14.317112 24.918364 -21.323379 30.343051 9.041930 8.262099 -18.001800 -0.000001 -0.000007 0.000002 -0.063509 -3.017260 61.424403 0.007459 4.394724 66.609125 0.000002 -0.000000 -0.000000 -1.211039 -0.136223 68.269865 -0.073718 4.907973 84.504514 -0.000001 0.000001 -0.000000 0.882088 -4.623050 79.192669 -0.725008 1.135687 73.255657 0.000001 -0.000003 0.000002 -3.962298 0.092889 86.764931 -0.034318 0.051253 54.416322 -0.000001 0.000001 0.000002 -0.000002 0.000005 -0.000000 0.000000 0.000005 0.000000 -0.000002 0.000005 -0.000001 -0.000003 -0.000001 -0.000001 -0.000003 0.000000 -0.000001 -0.000003 -0.000001 -0.000001 -0.000003 -0.000000 0.000001 -0.000001 0.000000 0.000000 -0.000001 0.000000 0.000000 -0.000001 0.000000 0.000000 -0.000001 0.000000 0.000000 -0.000001 0.000000 0.000000 -0.000001 0.000000 0.000000 -0.000001 0.000000 0.000000 -0.000002 -0.000000 -0.000000 -0.000000 0.000000 0.000000 
-0.185352 93.185493 8.543803 -1.014527 -0.914185 1.677256 0.000000 -0.000000 -0.000000 -35.550738 13.246321 8.714809 52.525715 -8.534130 -2.677249 2.194467 -0.100544 0.122128 0.000002 -0.000000 0.000000 0.000002 0.000001 0.000001 -19.262506 -4.244843 -3.332512 35.334160 2.071354 -3.456077 -15.544834 -1.260009 6.612489 -0.000000 -0.000001 -0.000001 0.000001 0.000000 -0.000000 20.012980 -8.227499 2.051999 1.472711 -2.275717 -0.584448 1.487984 -2.242705 -0.522207 1.754245 0.254176 -0.746852 1.754229 0.254179 -0.746851 -0.000003 0.000001 -0.000000 1.754322 0.254174 -0.746852 1.754254 0.254187 -0.746856 -0.000001 0.000000 0.000000 -0.000003 0.000001 -0.000000 -1.194717 -13.688255 -0.687403 -18.847647 -11.530882 -47.130655 -81.066060 -62.046067 -76.071553 -0.111213 -6.370539 -2.764433 4.766502 -0.870661 -14.442459 15.691238 12.663979 8.903915 0.000002 -0.000001 -0.000001 -3.608628 -7.802297 -81.185261 0.000293 -4.393976 -67.421610 -0.000000 0.000000 -0.000000 -5.480064 2.429194 -86.579696 -0.066866 -4.897949 -76.631902 0.000000 -0.000001 0.000001 -4.495564 3.904358 -90.267555 -1.113976 -0.682347 -62.340632 0.000000 -0.000001 0.000001 -8.889463 8.251750 -85.700064 -0.027043 -0.063894 -74.102689 -0.000001 0.000000 0.000001 0.000000 -0.000000 -0.000003 0.000000 -0.000000 -0.000003 0.000000 -0.000000 -0.000003 -0.000003 0.000001 0.000002 -0.000002 0.000000 0.000000 -0.000003 0.000001 0.000002 -0.000003 0.000001 0.000001 1.245330 -0.817736 1.974864 3.456582 1.630353 51.582418 -82.572841 68.773052 77.442775 -1.810492 9.149980 15.352356 24.918367 -21.323379 30.343051 9.041935 8.262101 -18.001805 0.000003 0.000001 -0.000000 -0.068729 -3.018383 61.310496 0.007536 4.394660 66.933094 -0.000001 0.000001 0.000000 -1.212954 -0.134807 68.257427 -0.070778 4.903542 84.549498 0.000002 -0.000000 0.000002 0.933803 -4.658307 79.139141 -0.721829 1.134301 73.274112 -0.000000 -0.000001 0.000001 -3.977909 0.105352 86.614237 -0.031271 0.051719 54.512997 0.000001 0.000003 -0.000002 -0.000002 0.000002 -0.000003 -0.000001 0.000000 -0.000003 -0.000002 0.000002 -0.000003 -0.000001 0.000000 -0.000001 -0.000002 0.000001 0.000001 -0.000001 0.000000 -0.000001 -0.000001 0.000001 0.000002 -0.000000 -0.000001 0.000000 -0.000000 -0.000001 0.000000 -0.000000 -0.000001 0.000000 -0.000000 -0.000001 0.000000 -0.000000 -0.000001 0.000000 -0.000000 -0.000001 0.000000 -0.000000 -0.000001 0.000000 -0.000001 0.000000 0.000000 0.000000 -0.000000 -0.000000 
-0.337206 93.459061 13.234995 -0.846998 -1.897665 1.951427 0.000000 0.000000 -0.000000 -37.089351 15.178723 7.129118 43.116915 -10.157185 -1.447601 1.579101 -0.223362 1.098996 -0.000000 -0.000001 -0.000000 -0.000000 0.000000 0.000001 -16.433244 -3.041754 -3.370652 36.799830 0.805537 -3.343819 -18.448544 -1.256402 7.074292 0.000000 -0.000000 0.000000 0.000001 0.000001 -0.000000 19.329898 -7.787475 1.793886 1.472669 -2.132992 -0.653078 1.487637 -2.097711 -0.596622 1.796962 0.255761 -0.764833 1.796973 0.255760 -0.764832 -0.000002 -0.000001 -0.000000 1.797042 0.255761 -0.764833 1.796977 0.255762 -0.764833 -0.000003 0.000001 0.000000 -0.000002 -0.000001 -0.000000 -1.241869 -13.060188 -1.228915 -18.096644 -10.249610 -47.441418 -76.520208 -61.860805 -71.699590 -0.076497 -7.038046 -3.209524 4.766501 -0.870660 -14.442467 15.684601 12.660399 8.917014 -0.000000 -0.000005 0.000000 -3.603422 -7.774775 -81.216878 0.002868 -4.391741 -67.440079 0.000001 0.000001 -0.000000 -5.476037 2.441306 -86.607079 -0.064380 -4.896232 -76.648096 -0.000000 -0.000001 0.000003 -4.501155 3.904729 -90.223958 -1.108150 -0.678374 -62.378069 -0.000000 0.000001 0.000001 -8.894212 8.249480 -85.671862 -0.027051 -0.063888 -74.102703 -0.000000 -0.000005 -0.000001 0.000000 0.000000 0.000003 0.000000 0.000000 0.000003 0.000000 0.000000 0.000003 -0.000000 0.000000 -0.000001 0.000001 0.000001 -0.000003 -0.000000 0.000000 -0.000001 -0.000001 0.000001 -0.000002 1.257586 -0.612572 1.785017 3.140775 1.715080 51.245127 -83.255191 69.379033 78.219791 -2.328134 7.944837 16.371581 24.918366 -21.323371 30.343054 9.041931 8.262100 -18.001807 -0.000000 0.000002 -0.000000 -0.055228 -3.050176 61.333063 0.007689 4.394595 67.025842 -0.000000 0.000003 -0.000001 -1.190526 -0.143554 68.286790 -0.069916 4.899789 84.596503 -0.000001 0.000000 -0.000000 0.993191 -4.698520 79.091487 -0.717512 1.132176 73.301884 0.000002 -0.000001 0.000004 -3.947523 0.119540 86.410704 -0.029829 0.051945 54.616795 -0.000001 0.000001 0.000002 -0.000000 -0.000001 0.000002 -0.000000 -0.000001 0.000001 -0.000000 -0.000001 0.000001 -0.000001 -0.000001 -0.000002 -0.000001 -0.000001 -0.000000 -0.000001 -0.000001 -0.000002 -0.000001 -0.000001 0.000001 -0.000002 0.000000 0.000000 -0.000002 0.000000 0.000000 -0.000002 0.000000 0.000000 -0.000002 0.000000 0.000000 -0.000002 0.000000 0.000000 -0.000002 0.000000 0.000000 -0.000002 0.000000 0.000000 -0.000001 -0.000000 -0.000000 0.000000 0.000000 -0.000000 
-0.454371 93.336708 18.089338 -0.682257 -3.069229 2.196850 0.000000 -0.000000 -0.000000 -37.108220 16.792334 5.575437 33.393659 -11.269324 0.014873 0.480729 -0.134478 0.908614 -0.000000 -0.000000 0.000000 0.000001 -0.000000 0.000000 -14.398623 -1.446875 -3.261671 39.736408 -0.858694 -3.301713 -21.747010 -1.175709 7.436070 0.000000 -0.000000 -0.000001 0.000003 0.000000 -0.000000 18.587967 -7.342394 1.633660 1.472392 -1.993369 -0.735973 1.487107 -1.955632 -0.685688 1.840401 0.266635 -0.786071 1.840418 0.266634 -0.786071 0.000002 -0.000001 0.000000 1.840481 0.266632 -0.786071 1.840323 0.266633 -0.786070 -0.000001 -0.000000 -0.000000 0.000002 -0.000001 -0.000000 -1.228718 -12.420861 -1.610477 -17.434874 -9.329088 -47.555001 -71.606849 -61.375267 -66.960825 -0.056895 -8.019504 -3.425487 4.766501 -0.870661 -14.442462 15.704946 12.667066 8.867994 0.000005 -0.000000 -0.000005 -3.592460 -7.731986 -81.327172 0.009004 -4.386604 -67.484735 0.000001 -0.000001 -0.000000 -5.468521 2.461192 -86.711704 -0.063125 -4.895369 -76.656258 -0.000000 0.000000 -0.000000 -4.507369 3.905871 -90.258587 -1.105765 -0.674706 -62.411270 0.000000 0.000001 -0.000000 -8.912348 8.245307 -85.660196 -0.027039 -0.063880 -74.102689 -0.000001 0.000000 0.000001 0.000001 0.000000 -0.000001 0.000001 0.000000 -0.000001 0.000001 0.000001 -0.000001 0.000001 0.000003 -0.000003 0.000002 0.000002 -0.000007 0.000001 0.000003 -0.000003 0.000001 0.000003 -0.000005 1.243137 -0.182863 1.635995 2.808644 1.606287 50.619939 -83.785452 69.851983 78.743243 -2.743136 6.939098 17.259987 24.918364 -21.323374 30.343054 9.041927 8.262103 -18.001804 0.000000 -0.000000 -0.000001 -0.031002 -3.100052 61.442278 0.007503 4.394711 66.929577 -0.000000 0.000002 -0.000000 -1.151473 -0.161714 68.323004 -0.069247 4.899192 84.617383 0.000000 -0.000002 -0.000000 1.055696 -4.741788 79.052767 -0.715037 1.130318 73.325380 0.000003 -0.000003 0.000001 -3.896517 0.130004 86.207752 -0.029325 0.052036 54.696766 -0.000001 0.000005 0.000002 -0.000000 0.000004 -0.000002 -0.000000 0.000001 -0.000003 -0.000000 0.000003 -0.000001 -0.000001 0.000001 0.000004 -0.000001 0.000002 0.000004 -0.000001 0.000001 0.000004 -0.000001 0.000002 0.000006 0.000001 -0.000000 -0.000000 0.000001 -0.000000 -0.000000 0.000001 -0.000000 -0.000000 0.000001 -0.000000 -0.000000 0.000001 -0.000000 -0.000000 0.000001 -0.000000 -0.000000 0.000001 -0.000000 -0.000000 -0.000001 0.000001 -0.000000 0.000000 -0.000000 -0.000000 
